<svg id="visual" viewBox="0 0 1920 300" width="1920" height="300" xmlns="http://www.w3.org/2000/svg" xmlns:xlink="http://www.w3.org/1999/xlink" version="1.1"><rect x="0" y="0" width="1920" height="300" fill="#FFFFFF"></rect><path d="M0 181L53.3 180.8C106.7 180.7 213.3 180.3 320 157.3C426.7 134.3 533.3 88.7 640 84.7C746.7 80.7 853.3 118.3 960 137.5C1066.7 156.7 1173.3 157.3 1280 148.2C1386.7 139 1493.3 120 1600 110.7C1706.7 101.3 1813.3 101.7 1866.7 101.8L1920 102L1920 0L1866.7 0C1813.3 0 1706.7 0 1600 0C1493.3 0 1386.7 0 1280 0C1173.3 0 1066.7 0 960 0C853.3 0 746.7 0 640 0C533.3 0 426.7 0 320 0C213.3 0 106.7 0 53.3 0L0 0Z" fill="#FF6174" stroke-linecap="round" stroke-linejoin="miter"></path></svg>