<svg id="visual" viewBox="0 0 700 100" width="700" height="100" xmlns="http://www.w3.org/2000/svg" xmlns:xlink="http://www.w3.org/1999/xlink" version="1.1"><rect x="0" y="0" width="700" height="100" fill="#FFFFFF"></rect><path d="M0 43L16.7 42.8C33.3 42.7 66.7 42.3 100 39.3C133.3 36.3 166.7 30.7 200 33C233.3 35.3 266.7 45.7 300 50.8C333.3 56 366.7 56 400 51.2C433.3 46.3 466.7 36.7 500 37.2C533.3 37.7 566.7 48.3 600 50.3C633.3 52.3 666.7 45.7 683.3 42.3L700 39L700 0L683.3 0C666.7 0 633.3 0 600 0C566.7 0 533.3 0 500 0C466.7 0 433.3 0 400 0C366.7 0 333.3 0 300 0C266.7 0 233.3 0 200 0C166.7 0 133.3 0 100 0C66.7 0 33.3 0 16.7 0L0 0Z" fill="#FF9FAB" stroke-linecap="round" stroke-linejoin="miter"></path></svg>