<svg id="visual" viewBox="0 0 700 100" width="700" height="100" xmlns="http://www.w3.org/2000/svg" xmlns:xlink="http://www.w3.org/1999/xlink" version="1.1"><rect x="0" y="0" width="700" height="100" fill="#FFFFFF"></rect><path d="M0 24L16.7 29.5C33.3 35 66.7 46 100 53.2C133.3 60.3 166.7 63.7 200 61.3C233.3 59 266.7 51 300 49.5C333.3 48 366.7 53 400 56.7C433.3 60.3 466.7 62.7 500 58.5C533.3 54.3 566.7 43.7 600 39.3C633.3 35 666.7 37 683.3 38L700 39L700 0L683.3 0C666.7 0 633.3 0 600 0C566.7 0 533.3 0 500 0C466.7 0 433.3 0 400 0C366.7 0 333.3 0 300 0C266.7 0 233.3 0 200 0C166.7 0 133.3 0 100 0C66.7 0 33.3 0 16.7 0L0 0Z" fill="#B7E9F9" stroke-linecap="round" stroke-linejoin="miter"></path></svg>